<?xml version="1.0" encoding="utf-8"?>
<!-- Generator: Adobe Illustrator 16.0.0, SVG Export Plug-In . SVG Version: 6.00 Build 0)  -->
<!DOCTYPE svg PUBLIC "-//W3C//DTD SVG 1.0//EN" "http://www.w3.org/TR/2001/REC-SVG-20010904/DTD/svg10.dtd">
<svg version="1.0" id="Layer_1" xmlns="http://www.w3.org/2000/svg" xmlns:xlink="http://www.w3.org/1999/xlink" x="0px" y="0px"
	 width="100px" height="100px" viewBox="0 0 100 100" enable-background="new 0 0 100 100" xml:space="preserve">
<polygon fill="#8BC34A" points="83.333,30.812 83.333,16.669 69.188,16.669 75.854,10.004 90,10.004 90,24.145 "/>
<polygon fill="#8BC34A" points="30.807,16.667 16.667,16.667 16.667,30.813 10,24.146 10,10 24.141,10 "/>
<polygon fill="#8BC34A" points="16.667,69.188 16.667,83.333 30.813,83.333 24.147,90 10,90 10,75.854 "/>
<polygon fill="#8BC34A" points="69.191,83.333 83.333,83.333 83.333,69.188 90,75.854 90,90 75.859,90 "/>
<path fill="#263238" d="M76.667,23.336H62.529L50,35.863L37.474,23.336H23.333v14.141l12.526,12.528L23.333,62.532v14.135H37.48
	L50,64.146l12.521,12.521h14.146V62.525l-12.522-12.52L76.667,37.48V23.336z M30,34.716v-4.712h4.712l10.576,10.572l-4.713,4.713
	L30,34.716z M34.718,70H30v-4.707L40.573,54.72l4.715,4.714L34.718,70z M50,54.72l-4.712-4.716L50,45.289l4.714,4.715L50,54.72z
	 M70,65.286V70h-4.717L54.717,59.434l4.715-4.714L70,65.286z M70,34.721L59.432,45.289l-4.718-4.713L65.29,30.004H70V34.721z"/>
</svg>
